<svg width="128" height="128" viewBox="0 0 128 128" fill="none" xmlns="http://www.w3.org/2000/svg">
<path d="M119.887 32.1985C119.261 30.2614 118.287 28.5605 117.035 27.0958C116.873 26.8832 116.711 26.6469 116.525 26.4343C116.363 26.2217 116.201 25.9855 116.015 25.7729C115.853 25.5603 115.691 25.324 115.505 25.1114C115.343 24.8988 115.181 24.6625 114.995 24.4499C114.833 24.2373 114.671 24.0011 114.485 23.7885C114.323 23.5759 114.16 23.3396 113.975 23.127C113.813 22.9144 113.65 22.6782 113.465 22.4655C113.303 22.2529 113.14 22.0167 112.955 21.8041C112.793 21.5915 112.63 21.3552 112.445 21.1426C112.282 20.93 112.12 20.6938 111.935 20.4811C111.772 20.2685 111.61 20.0323 111.425 19.8197C111.262 19.6071 111.1 19.3708 110.915 19.1582C110.752 18.9456 110.59 18.7094 110.405 18.4967C110.242 18.2841 110.08 18.0479 109.894 17.8353C109.732 17.6227 109.57 17.3864 109.384 17.1738C109.222 16.9612 109.06 16.725 108.874 16.5124C108.712 16.2997 108.55 16.0635 108.364 15.8509C108.202 15.6383 108.04 15.402 107.854 15.1894C107.692 14.9768 107.53 14.7406 107.344 14.528C107.182 14.3153 107.02 14.0791 106.834 13.8665C106.301 13.1814 105.744 12.5199 105.095 11.953C103.588 10.6064 100.922 9 96.8182 9C93.0622 9 89.8163 10.4647 87.4283 13.2759C85.2721 15.8036 84.1361 18.9456 84.1361 22.371C84.1361 25.7965 85.0635 28.5132 86.7328 30.6157C86.1995 30.9937 85.5271 31.5843 84.9012 32.4348C84.0433 31.5371 83.1159 30.6866 82.119 29.907C78.4326 27.0722 73.8652 25.6547 68.5326 25.6547C63.6175 25.6547 58.6791 27.143 53.8334 30.1196C52.9988 30.6394 52.1873 31.1591 51.3758 31.7024C51.3758 31.6788 51.3295 31.6552 51.3063 31.6316C51.2367 31.5134 51.1672 31.3953 51.0976 31.3008C51.0049 31.1827 50.889 31.0882 50.7962 30.9701C50.7267 30.852 50.6571 30.7339 50.5876 30.6394C50.4948 30.5212 50.3789 30.4267 50.2861 30.3086C50.2166 30.1905 50.147 30.0724 50.0775 29.9779C48.014 27.2139 44.9073 25.6784 41.2904 25.6784C38.9719 25.6784 36.6998 26.0327 34.4973 26.6942C32.6888 27.2612 30.9036 27.9226 29.2343 28.6313L16.0189 34.0648C14.0946 34.868 12.3093 35.9783 10.7328 37.3485C8.27517 39.4983 7 42.4985 7 45.9712C7 48.8769 7.81147 51.2865 9.38804 53.1292C9.43441 53.2 9.50397 53.2473 9.57352 53.3182C9.68944 53.4835 9.78218 53.6489 9.92129 53.7906C9.96766 53.8615 10.0372 53.9088 10.1068 53.9796C10.2227 54.145 10.3154 54.3104 10.4545 54.4521C10.5009 54.523 10.5705 54.5702 10.64 54.6411C10.7559 54.8065 10.8487 54.9718 10.9878 55.1136C11.0342 55.1844 11.1037 55.2317 11.1733 55.3026C11.2892 55.4679 11.3819 55.6333 11.521 55.775C11.5674 55.8459 11.637 55.8932 11.7065 55.964C11.8225 56.1294 11.9152 56.2948 12.0543 56.4365C12.1007 56.5074 12.1702 56.5546 12.2398 56.6255C12.3557 56.7909 12.4484 56.9562 12.5876 57.098C12.6339 57.1688 12.7035 57.2161 12.773 57.287C12.773 57.3106 12.7962 57.3342 12.8194 57.3578V80.3674C12.8194 81.0052 12.7498 81.3123 12.773 81.3123C12.5644 81.6903 12.3557 82.021 12.1239 82.2336C11.1965 83.1786 10.3618 84.218 9.61989 85.3283C8.41428 87.171 7.78829 89.4389 7.78829 92.0847C7.78829 95.7937 9.08664 98.2978 10.5009 99.9515C10.6632 100.188 10.8487 100.4 11.011 100.613C11.1733 100.849 11.3588 101.062 11.521 101.274C11.6833 101.511 11.8688 101.723 12.0311 101.936C12.1934 102.172 12.3789 102.385 12.5412 102.597C12.7035 102.834 12.889 103.046 13.0513 103.259C13.2135 103.495 13.399 103.708 13.5613 103.92C13.7236 104.156 13.9091 104.369 14.0714 104.582C14.2337 104.818 14.4192 105.031 14.5815 105.243C14.7437 105.479 14.9292 105.692 15.0915 105.905C15.2538 106.141 15.4393 106.377 15.6016 106.566C15.7639 106.802 15.9494 107.015 16.1117 107.228C16.2739 107.464 16.4594 107.676 16.6217 107.889C16.784 108.125 16.9695 108.338 17.1318 108.55C17.2941 108.787 17.4796 108.999 17.6419 109.212C17.8041 109.448 17.9896 109.661 18.1519 109.873C18.3142 110.11 18.4997 110.322 18.662 110.535C18.8243 110.771 19.0098 110.984 19.1721 111.196C19.3344 111.433 19.5198 111.645 19.6821 111.858C19.8444 112.094 20.0299 112.307 20.1922 112.519C20.3545 112.756 20.54 112.968 20.7023 113.181C21.2123 113.913 21.7688 114.504 22.302 114.976C24.5278 116.961 27.4259 118 30.6718 118H56.2215C59.4905 118 61.8322 116.913 63.4088 115.661C64.9854 116.913 67.3038 118 70.5961 118H96.1458C99.3917 118 102.29 116.961 104.516 114.976C106.231 113.441 108.295 110.629 108.295 105.999C108.295 102.975 107.53 100.542 106.092 98.6994C105.93 98.4632 105.744 98.2505 105.582 98.0379C105.42 97.8017 105.234 97.5891 105.072 97.3765C104.91 97.1402 104.724 96.9276 104.562 96.715C104.4 96.4788 104.214 96.2661 104.052 96.0535C103.89 95.8173 103.704 95.6047 103.542 95.3921C103.495 95.3212 103.472 95.2503 103.426 95.2031C103.379 94.4707 103.333 93.7148 103.333 92.9588V67.0436C103.333 64.8466 103.124 62.7204 102.73 60.6415C102.869 60.6415 103.009 60.6415 103.171 60.6415C103.982 60.6415 104.794 60.547 105.744 60.3344C109.5 59.4603 112.584 57.9012 114.902 55.6569C117.198 53.4363 118.844 50.7195 119.794 47.554C120.606 44.8609 121 41.8606 121 38.6714C121 36.4508 120.652 34.2774 119.98 32.1985H119.887ZM89.4686 96.148C88.3789 97.1166 86.9414 97.6127 85.1794 97.6127H59.6297C57.914 97.6127 56.6156 97.093 55.6882 96.0535C54.7608 95.0141 54.3203 93.6439 54.3203 91.943C54.3203 90.3602 54.6681 89.1318 55.3868 88.2341C56.1056 87.3364 56.8011 86.415 57.5198 85.4228C58.2386 84.4543 58.5863 83.0605 58.5863 81.2887V59.673C58.5863 57.7122 58.2154 55.8223 57.4503 53.9324C56.6852 52.0661 55.1318 51.1212 52.7669 51.1212C51.3295 51.1212 50.1239 51.4046 49.1037 51.9716C48.0836 52.5386 47.133 53.2473 46.2288 54.1214V79.5878C46.2288 80.6981 46.2752 81.832 46.3447 82.9896C46.4375 84.1235 46.8316 85.1866 47.5735 86.1315C48.4314 87.171 49.1501 88.0214 49.7065 88.6593C50.2861 89.2971 50.5644 90.3838 50.5644 91.9194C50.5644 93.6203 50.1007 94.9905 49.1965 96.0299C48.2691 97.0693 46.9707 97.5891 45.255 97.5891H19.7285C17.9664 97.5891 16.5522 97.093 15.4393 96.1244C14.3496 95.1558 13.7932 93.7384 13.7932 91.9194C13.7932 90.5492 14.0482 89.4861 14.5583 88.7065C15.0683 87.9506 15.648 87.2182 16.2971 86.5568C16.9463 85.8953 17.5259 85.0921 18.036 84.1235C18.5461 83.1786 18.8011 81.8557 18.8011 80.202V57.098C18.8011 55.2317 18.5229 53.8143 17.9433 52.8693C17.3636 51.9244 16.6913 51.1448 15.9262 50.6014C15.1611 50.0345 14.4887 49.4202 13.9091 48.7588C13.3295 48.0973 13.0513 47.1051 13.0513 45.7586C13.0513 44.1285 13.5845 42.8528 14.651 41.9315C15.7175 40.9866 16.8999 40.2542 18.1983 39.7109L31.3905 34.301C32.9439 33.6396 34.5204 33.049 36.1202 32.5529C37.72 32.0568 39.3893 31.7969 41.1049 31.7969C42.8206 31.7969 44.0494 32.3875 44.9304 33.5687C45.8115 34.7499 46.252 36.1437 46.252 37.7029V43.4434C49.4747 40.4196 53.022 37.7029 56.8938 35.3405C60.7657 32.9781 64.5912 31.7969 68.3935 31.7969C72.1958 31.7969 75.6272 32.7891 78.2239 34.7971C80.8206 36.7815 82.7913 39.3801 84.1129 42.593C85.4344 45.7822 86.1068 49.2313 86.1068 52.9402V78.8554C86.1068 80.013 86.1531 81.1706 86.2691 82.2809C86.3618 83.3912 86.8023 84.4543 87.5906 85.4701C88.518 86.6749 89.3527 87.6198 90.0714 88.2813C90.7901 88.9428 91.1379 90.1712 91.1379 91.9666C91.1379 93.762 90.5815 95.2031 89.4918 96.1716L89.4686 96.148ZM102.846 31.6552C102.22 33.7577 101.154 35.5295 99.6467 36.9941C98.1397 38.4352 96.0531 39.4746 93.3868 40.0889C92.9463 40.1834 92.5522 40.2306 92.1812 40.2306C91.3234 40.2306 90.651 39.9944 90.1641 39.4983C89.6772 39.0022 89.4222 38.3171 89.4222 37.4666C89.4222 36.6162 89.6309 36.0256 90.0714 35.7185C90.5119 35.4114 91.0683 35.1515 91.7639 34.9153C92.6449 34.5845 93.5259 34.2065 94.407 33.7813C95.288 33.3561 96.0067 32.7891 96.5863 32.104C97.166 31.4189 97.4674 30.4976 97.4674 29.3873C97.4674 28.9857 97.3746 28.7258 97.166 28.6077C96.9573 28.4896 96.7023 28.4423 96.3545 28.4423C92.2508 28.4423 90.1873 26.3635 90.1873 22.2293C90.1873 20.3394 90.7901 18.6857 91.9726 17.2919C93.155 15.8981 94.7084 15.213 96.6559 15.213C98.3948 15.213 99.7858 15.6855 100.829 16.6068C101.872 17.5282 102.614 18.7094 103.101 20.1504C103.565 21.5915 103.797 23.0798 103.797 24.6389C103.797 27.2375 103.495 29.5763 102.869 31.6788L102.846 31.6552Z" fill="white"/>
</svg>
