<svg width="560" height="144" viewBox="0 0 560 144" fill="none" xmlns="http://www.w3.org/2000/svg">
<path fill-rule="evenodd" clip-rule="evenodd" d="M555.02 94.04C553.01 91.28 550.43 89.09 547.46 87.6199V61.88C547.46 51.77 544.88 43.22 539.75 36.47C534.83 29.96 528.29 25.3099 520.31 22.58C513.83 20.3599 506.72 19.25 499.19 19.25C493.4 19.25 487.19 19.7 480.74 20.63C473.6 21.62 466.7 23.5399 460.22 26.27C453.8 28.9699 448.28 32.81 443.69 37.5499C441.23 33.5299 438.2 29.9599 434.51 26.9899C428 21.7399 420.02 19.1 410.78 19.1C404.45 19.1 398.24 20.5399 392.27 23.3899C389.21 24.8599 386.21 26.57 383.33 28.52C378.53 24.1099 370.34 19.1 357.77 19.1C350.66 19.1 343.55 21.02 336.62 24.83C332.42 21.11 326.99 19.1 320.96 19.1C316.97 19.1 313.01 19.67 309.2 20.84C306.47 21.68 303.74 22.6399 301.19 23.7199L283.58 30.98C283.277 31.1047 282.985 31.24 282.697 31.3734C282.5 31.4645 282.305 31.5547 282.11 31.6399C281.39 30.2899 280.52 29 279.56 27.77C275.06 22.16 268.46 19.1 261.02 19.1C257.06 19.1 253.07 19.7 249.23 20.87C246.53 21.68 243.86 22.61 241.22 23.66L223.31 30.8899C221.39 31.6399 219.59 32.54 217.91 33.56C215.69 31.49 213.26 29.6 210.59 27.95C205.49 24.83 199.85 22.5499 193.88 21.11C188.3 19.76 182.69 19.1 177.2 19.1C171.29 19.1 165.68 19.7899 160.37 21.08C160.13 20.09 159.86 19.1299 159.56 18.17C158 13.4 155.33 9.37995 151.67 6.16995C148.55 3.43995 143.15 0.199951 135.08 0.199951C127.67 0.199951 120.95 3.22995 116.18 8.68995C112.76 12.62 110.66 17.33 110 22.4C105.02 20.2099 99.47 19.07 93.3801 19.07C86.0601 19.07 78.77 20.96 71.69 24.71C67.49 21.05 62.12 19.07 56.15 19.07C52.16 19.07 48.2 19.64 44.39 20.81C41.66 21.65 38.93 22.61 36.5 23.66L18.41 30.95C14.9 32.36 11.69 34.34 8.84005 36.7999C3.65005 41.2999 0.800049 47.6899 0.800049 54.7999C0.800049 62.2999 3.74005 67.22 6.17005 70.0099C6.95005 70.88 7.76005 71.72 8.63005 72.53V99.14C7.58005 100.31 6.62005 101.57 5.75005 102.86C3.11005 106.76 1.79005 111.41 1.79005 116.69C1.79005 124.07 4.67005 130.61 9.89005 135.14C14.51 139.16 20.39 141.29 26.9 141.29H61.79C65.3 141.29 68.6001 140.63 71.6001 139.37C74.6001 140.63 77.9 141.29 81.41 141.29H116.3C122.81 141.29 128.69 139.16 133.31 135.17C134.69 133.97 135.89 132.62 136.94 131.15C139.4 133.04 142.04 134.78 144.83 136.28C153.95 141.2 164.24 143.69 175.4 143.69C181.25 143.69 187.25 142.85 193.25 141.2C199.4 139.49 205.22 136.94 210.5 133.52C210.812 133.318 211.112 133.094 211.415 132.868L211.416 132.867L211.417 132.867C211.609 132.724 211.802 132.579 212 132.44C212.87 133.49 213.8 134.48 214.85 135.35C219.44 139.22 225.26 141.23 231.65 141.23H267.14C271.67 141.23 275.9 140.18 279.62 138.2C283.34 140.18 287.54 141.23 292.1 141.23H326.42C329.75 141.23 332.93 140.63 335.81 139.49C338.69 140.63 341.87 141.23 345.2 141.23H379.28C382.67 141.23 385.88 140.63 388.79 139.46C391.7 140.63 394.88 141.23 398.24 141.23H432.56C438.11 141.23 443.18 139.67 447.41 136.76C449.15 137.87 450.98 138.92 452.93 139.76C458.84 142.34 465.2 143.63 471.89 143.63C478.58 143.63 485.45 142.37 492.23 139.88C493.82 139.28 495.35 138.62 496.85 137.9C497.9 138.47 498.98 139.01 500.09 139.49C506.48 142.25 512.99 143.63 519.47 143.63C525.29 143.63 531.08 142.43 536.66 140.09C542.66 137.57 547.79 133.82 551.9 128.93C556.82 123.05 559.43 115.79 559.43 107.93C559.43 102.86 557.9 98.03 554.99 94.0099L555.02 94.04ZM119.57 107.96C118.52 106.61 117.92 105.2 117.77 103.7C117.62 102.2 117.56 100.67 117.56 99.1099V64.3699C117.56 59.4199 116.66 54.7999 114.86 50.5099C113.06 46.2199 110.36 42.7399 106.79 40.0699C103.22 37.3999 98.7498 36.0499 93.3498 36.0499C87.9498 36.0499 82.9398 37.6399 77.6598 40.8199C72.3798 43.9999 67.5198 47.5999 63.1398 51.6799V43.9999C63.1398 41.8699 62.5398 40.0399 61.3398 38.4499C60.1398 36.8599 58.3998 36.0799 56.1198 36.0799C53.8398 36.0799 51.4998 36.4099 49.3098 37.0699C47.1198 37.7299 44.9598 38.5099 42.8298 39.4099L24.7998 46.6699C23.0298 47.3899 21.4098 48.3799 19.9698 49.6399C18.5298 50.8999 17.8098 52.6099 17.8098 54.7699C17.8098 56.5399 18.1998 57.8899 18.9798 58.7899C19.7598 59.6899 20.6898 60.4999 21.7398 61.2499C22.7898 61.9999 23.7198 63.0199 24.4998 64.3099C25.2798 65.5999 25.6698 67.4899 25.6698 69.9799V100.97C25.6698 103.19 25.3098 104.96 24.6198 106.22C23.9298 107.48 23.1198 108.59 22.2498 109.46C21.3498 110.36 20.5698 111.32 19.8798 112.34C19.1898 113.36 18.8298 114.8 18.8298 116.63C18.8298 119.09 19.5798 120.95 21.0798 122.27C22.5798 123.59 24.5298 124.22 26.9298 124.22H61.8198C64.1598 124.22 65.9598 123.53 67.2198 122.12C68.4798 120.74 69.1098 118.88 69.1098 116.6C69.1098 114.53 68.7198 113.09 67.9398 112.22C67.1598 111.35 66.1998 110.24 65.0298 108.83C64.0398 107.54 63.4698 106.13 63.3498 104.6C63.2298 103.07 63.1698 101.54 63.1698 100.04V65.8999C64.3998 64.7299 65.6898 63.7699 67.0998 63.0199C68.4798 62.2699 70.1598 61.8799 72.1098 61.8799C75.3498 61.8799 77.4798 63.1399 78.4998 65.6299C79.5198 68.1199 80.0298 70.6999 80.0298 73.3099V102.29C80.0298 104.69 79.5498 106.55 78.5598 107.84C77.5698 109.16 76.6098 110.39 75.6498 111.59C74.6598 112.79 74.1798 114.44 74.1798 116.57C74.1798 118.85 74.8098 120.68 76.0698 122.09C77.3298 123.47 79.1298 124.19 81.4398 124.19H116.33C118.73 124.19 120.68 123.53 122.18 122.24C123.68 120.92 124.43 119.06 124.43 116.6C124.43 114.14 123.95 112.58 122.96 111.68C122 110.78 120.86 109.55 119.57 107.93V107.96ZM204.98 92.9299C207.371 91.4354 209.018 90.6854 209.98 90.68C211.679 90.6852 212.812 91.3751 213.38 92.7199C213.95 94.0999 214.22 95.4199 214.22 96.7699C214.22 101.78 213.05 106.16 210.68 109.88C208.31 113.6 205.19 116.69 201.32 119.18C197.45 121.64 193.25 123.5 188.72 124.76C184.19 126.02 179.75 126.65 175.4 126.65C167.06 126.65 159.56 124.88 152.9 121.28C146.24 117.71 140.99 112.67 137.12 106.22C133.25 99.7699 131.33 92.2999 131.33 83.8399C131.33 74.6599 133.19 66.4699 136.91 59.2999C140.63 52.1299 145.94 46.4599 152.81 42.3199C159.68 38.1799 167.78 36.1099 177.14 36.1099C181.31 36.1099 185.54 36.6499 189.83 37.6699C194.12 38.6899 198.05 40.3099 201.68 42.4999C205.28 44.6899 208.22 47.5399 210.44 51.0199C212.66 54.4999 213.77 58.6699 213.77 63.4999C213.77 68.7199 211.88 72.7099 208.1 75.4399C204.29 78.1699 200.12 79.5199 195.23 79.5199C190.34 79.5199 186.44 78.1699 183.47 75.4999C180.5 72.8299 179.03 68.9899 179.03 63.9799C179.03 61.6999 178.73 59.3899 178.16 57.0499C177.59 54.7099 175.76 53.5399 172.7 53.5399C170.36 53.5399 168.59 54.6799 167.36 56.9599C166.13 59.2399 165.32 61.8199 164.9 64.6399C164.48 67.4599 164.27 69.7399 164.27 71.4799C164.27 76.2499 165.05 80.8099 166.61 85.1599C168.17 89.5099 170.66 93.0199 174.05 95.7199C177.44 98.4199 181.85 99.7699 187.25 99.7699C190.43 99.7699 193.58 99.0199 196.7 97.4899C199.82 95.9599 202.58 94.4299 204.98 92.9299ZM209.98 90.68L209.99 90.6799H209.96L209.98 90.68ZM270.26 107.96C269.15 106.79 268.52 105.41 268.37 103.82C268.22 102.23 268.16 100.67 268.16 99.1099V43.9999C268.16 41.8399 267.53 39.9499 266.27 38.3899C265.01 36.8299 263.24 36.0499 260.96 36.0499C258.68 36.0499 256.4 36.4099 254.12 37.0999C251.84 37.7899 249.65 38.5699 247.52 39.3799L229.49 46.6399C227.6 47.3599 225.95 48.3499 224.57 49.5499C223.19 50.7799 222.47 52.4899 222.47 54.7399C222.47 56.8099 222.98 58.2499 224 59.0299C225.02 59.8399 226.16 60.8899 227.39 62.1499C227.6 62.3599 227.87 62.5699 228.17 62.7199C228.47 62.8699 228.74 63.1099 228.95 63.3799C229.73 64.2199 230.21 65.2399 230.36 66.4399C230.54 67.6399 230.6 68.7799 230.6 69.9199V99.0499C230.6 100.49 230.54 102.05 230.39 103.73C230.24 105.41 229.64 106.79 228.5 107.9C227 109.34 225.77 110.57 224.84 111.53C223.88 112.52 223.43 114.2 223.43 116.57C223.43 118.94 224.18 120.98 225.74 122.24C227.27 123.53 229.22 124.16 231.62 124.16H267.11C269.51 124.16 271.46 123.5 272.99 122.21C274.52 120.89 275.3 119.03 275.3 116.57C275.3 114.11 274.82 112.46 273.83 111.56C272.84 110.66 271.64 109.43 270.2 107.9L270.26 107.96ZM436.01 108.11V108.2L436.04 108.26C437.27 109.55 438.35 110.78 439.31 111.98C440.24 113.18 440.72 114.74 440.72 116.69C440.72 119.15 439.97 121.01 438.47 122.33C436.97 123.62 435.02 124.28 432.62 124.28H398.3C396.02 124.28 394.25 123.56 392.96 122.15C391.67 120.74 391.04 118.91 391.04 116.69C391.04 114.62 391.55 113.03 392.51 111.92C393.47 110.81 394.43 109.55 395.39 108.2C396.32 106.85 396.8 104.84 396.8 102.23V73.4299C396.8 71.8699 396.62 70.1899 396.29 68.4499C395.96 66.6799 395.27 65.1799 394.28 63.8899C393.29 62.5999 391.79 61.9699 389.78 61.9699C387.95 61.9699 386.3 62.4799 384.89 63.4699C383.48 64.4599 382.16 65.5699 380.93 66.7999V101.45C380.93 104.42 381.38 106.61 382.34 108.05C383.3 109.49 384.23 110.78 385.19 111.89C386.12 113.03 386.6 114.59 386.6 116.66C386.6 118.94 385.97 120.8 384.71 122.18C383.48 123.59 381.68 124.28 379.34 124.28H345.26C342.92 124.28 341.15 123.56 339.92 122.15C338.69 120.74 338.09 118.91 338.09 116.69C338.09 114.62 338.54 113.03 339.5 111.89C340.46 110.75 341.42 109.52 342.35 108.17C343.28 106.82 343.76 104.84 343.76 102.23V73.4299C343.76 71.8699 343.58 70.1899 343.25 68.4499C342.92 66.6799 342.23 65.1799 341.24 63.8899C340.25 62.5999 338.75 61.9699 336.74 61.9699C334.97 61.9699 333.35 62.4799 331.91 63.4399C330.47 64.4299 329.15 65.5399 327.98 66.8299V101.48C327.98 104.51 328.43 106.73 329.39 108.17C330.35 109.64 331.28 110.9 332.24 111.98C333.17 113.06 333.65 114.62 333.65 116.69C333.65 118.91 333.05 120.74 331.82 122.15C330.59 123.56 328.82 124.28 326.48 124.28H292.16C289.76 124.28 287.81 123.65 286.31 122.33C284.81 121.01 284.06 119.15 284.06 116.69C284.06 114.23 284.63 112.43 285.77 111.26C286.91 110.09 288.05 108.83 289.16 107.45C290.27 106.07 290.84 103.91 290.84 100.97V69.9799C290.84 67.4599 290.45 65.5999 289.67 64.3399C288.89 63.0799 287.99 62.0899 287 61.3699C286.01 60.6499 285.11 59.8399 284.33 58.9099C283.55 57.9799 283.16 56.5999 283.16 54.7699C283.16 52.4599 283.82 50.7499 285.2 49.5799C286.58 48.4099 288.2 47.4499 290.09 46.6699L307.7 39.4099C309.83 38.5099 311.99 37.7299 314.18 37.0699C316.37 36.4099 318.71 36.0799 320.99 36.0799C323.27 36.0799 325.01 36.8599 326.21 38.4499C327.41 40.0399 328.01 41.8699 328.01 43.9999V52.4299C332.36 48.2899 337.16 44.5399 342.41 41.1499C347.66 37.7599 352.79 36.0499 357.8 36.0499C363.77 36.0499 368.51 37.7899 372.08 41.2399C375.65 44.6899 378.14 48.8899 379.52 53.8399C382.46 50.9599 385.64 48.1399 389.03 45.4099C392.42 42.6799 395.96 40.4299 399.62 38.6899C403.31 36.9199 407.03 36.0499 410.81 36.0499C416.12 36.0499 420.47 37.4299 423.89 40.1899C427.31 42.9199 429.83 46.4599 431.48 50.7799C433.13 55.0999 433.94 59.5999 433.94 64.3399V99.0799C433.94 100.37 434 101.96 434.18 103.88C434.33 105.83 434.96 107.21 436.01 108.11ZM541.25 104.03C540.44 102.92 539.24 102.35 537.62 102.35C536.78 102.35 536.06 102.62 535.49 103.13C534.92 103.67 534.2 103.91 533.36 103.91C532.31 103.91 531.56 103.55 531.11 102.83C530.66 102.11 530.45 101.27 530.45 100.34V61.85C530.45 55.49 529.04 50.45 526.19 46.7C523.34 42.95 519.56 40.25 514.82 38.63C510.08 37.01 504.89 36.2 499.22 36.2C494.21 36.2 488.84 36.59 483.14 37.4C477.44 38.21 472.01 39.68 466.85 41.87C461.69 44.06 457.43 47.18 454.04 51.32C452.87 52.7 451.91 54.29 451.16 56.09C450.41 57.89 450.02 59.72 450.02 61.61C450.02 66.41 451.58 69.74 454.7 71.63C457.82 73.52 461.48 74.48 465.71 74.48C470.78 74.48 475.28 73.34 479.24 71C483.2 68.69 485.18 64.67 485.18 58.94V58.9382C485.18 58.3388 485.18 57.7394 485.15 57.14C485.15 56.855 485.142 56.57 485.135 56.285C485.127 56 485.12 55.715 485.12 55.43C485.12 54.14 485.33 52.79 485.75 51.38C486.17 49.97 487.25 49.25 488.96 49.25C490.67 49.25 491.93 50.18 492.5 52.01C493.07 53.84 493.37 55.46 493.37 56.84V78.56C492.14 78.35 490.88 78.2 489.62 78.17C488.967 78.17 488.33 78.1624 487.7 78.1548H487.699C487.084 78.1474 486.477 78.14 485.87 78.14C481.7 78.14 477.35 78.59 472.85 79.49C468.35 80.39 464.15 81.86 460.28 83.96C456.41 86.06 453.29 88.79 450.89 92.21C448.49 95.63 447.29 99.92 447.29 105.02C447.29 109.7 448.43 113.66 450.71 116.87C452.99 120.11 456.02 122.54 459.77 124.19C463.52 125.84 467.57 126.65 471.92 126.65C476.66 126.65 481.49 125.75 486.41 123.95C491.33 122.15 495.23 119.27 498.05 115.31C499.67 119.21 502.61 122.06 506.87 123.92C511.13 125.78 515.33 126.68 519.53 126.68C523.1 126.68 526.64 125.93 530.12 124.46C533.6 122.99 536.57 120.83 538.94 118.04C541.31 115.22 542.48 111.86 542.48 107.99C542.48 106.49 542.09 105.17 541.28 104.06L541.25 104.03ZM493.37 106.79C492.92 106.91 492.44 106.97 491.96 106.97C489.41 106.97 487.58 105.98 486.53 104C485.48 102.02 484.94 99.92 484.94 97.7C484.94 96.02 485.33 94.16 486.11 92.06C486.89 89.96 488.33 88.94 490.46 88.94C491.45 88.94 492.44 89.15 493.37 89.54V106.79ZM144.26 29.1498C144.26 32.4498 143.87 35.4198 143.06 38.0898L143.03 38.0298C142.22 40.6998 140.84 42.9798 138.89 44.8098C136.94 46.6398 134.24 47.9598 130.79 48.7398C130.22 48.8598 129.71 48.9198 129.23 48.9198C128.12 48.9198 127.25 48.6198 126.62 47.9898C125.99 47.3898 125.66 46.5198 125.66 45.4098C125.66 44.2998 125.96 43.5498 126.5 43.1898C127.04 42.8298 127.79 42.4998 128.69 42.1698C129.83 41.7498 130.97 41.2698 132.11 40.7298C133.22 40.1898 134.18 39.4698 134.93 38.5998C135.68 37.7298 136.07 36.5598 136.07 35.1498C136.07 34.6398 135.95 34.3098 135.68 34.1598C135.41 34.0098 135.08 33.9498 134.63 33.9498C129.32 33.9498 126.65 31.3398 126.65 26.0898C126.65 23.6598 127.43 21.5898 128.96 19.8198C130.49 18.0498 132.53 17.1798 135.02 17.1798C137.27 17.1798 139.07 17.7798 140.42 18.9498C141.77 20.1198 142.76 21.6198 143.36 23.4498C143.96 25.2798 144.26 27.1998 144.26 29.1498Z" fill="white"/>
</svg>
